# xmcd CD database file
#
# Track frame offsets:
#	150
#	29174
#	63919
#	89964
#	118624
#	154705
#	194326
#
# Disc length: 3016 seconds
#
# Revision: 0
# Processed by: cddbd v1.5.2PL0 Copyright (c) Steve Scherf et al.
# Submitted via: CDex 1.51
#
DISCID=620bc607
DTITLE=Steve Grossman feat.Harold Land - I'm Confessin'
DYEAR=1900
DGENRE=Jazz
TTITLE0=Vierd Blues
TTITLE1=Circus
TTITLE2=I'm Confessin'
TTITLE3=Sandrow
TTITLE4=Born To Be Blue
TTITLE5=Let's Cool One
TTITLE6=San Francisco Holiday
EXTD=
EXTT0=
EXTT1=
EXTT2=
EXTT3=
EXTT4=
EXTT5=
EXTT6=
PLAYORDER=
